<?xml version="1.0" encoding="utf-8"?>
<!-- Generator: Adobe Illustrator 23.0.5, SVG Export Plug-In . SVG Version: 6.00 Build 0)  -->
<svg version="1.1" id="Layer_1" xmlns="http://www.w3.org/2000/svg" xmlns:xlink="http://www.w3.org/1999/xlink" x="0px" y="0px"
	 viewBox="0 0 32 32" style="enable-background:new 0 0 32 32;" xml:space="preserve">
<style type="text/css">
	.st0{fill:none;stroke:#000000;stroke-width:2;stroke-miterlimit:10;}
	.st1{fill:none;stroke:#000000;stroke-miterlimit:10;}
</style>
<path class="st0" d="M25.96,28.09H6.04c-1.18,0-2.13-0.95-2.13-2.13V6.04c0-1.18,0.95-2.13,2.13-2.13h19.92
	c1.18,0,2.13,0.95,2.13,2.13v19.92C28.09,27.14,27.14,28.09,25.96,28.09z"/>
<g>
	<g>
		<path class="st1" d="M17.64,11.05h-2.9c-0.38,0-0.68-0.3-0.68-0.68v-2.9c0-0.38,0.3-0.68,0.68-0.68h2.9c0.38,0,0.68,0.3,0.68,0.68
			v2.9C18.32,10.75,18.02,11.05,17.64,11.05z"/>
		<path class="st1" d="M23.75,11.05h-2.9c-0.38,0-0.68-0.3-0.68-0.68v-2.9c0-0.38,0.3-0.68,0.68-0.68h2.9c0.38,0,0.68,0.3,0.68,0.68
			v2.9C24.43,10.75,24.13,11.05,23.75,11.05z"/>
	</g>
	<g>
		<path class="st1" d="M11.15,25.21h-2.9c-0.38,0-0.68-0.3-0.68-0.68v-2.9c0-0.38,0.3-0.68,0.68-0.68h2.9c0.38,0,0.68,0.3,0.68,0.68
			v2.9C11.83,24.91,11.53,25.21,11.15,25.21z"/>
		<path class="st1" d="M17.64,25.21h-2.9c-0.38,0-0.68-0.3-0.68-0.68v-2.9c0-0.38,0.3-0.68,0.68-0.68h2.9c0.38,0,0.68,0.3,0.68,0.68
			v2.9C18.32,24.91,18.02,25.21,17.64,25.21z"/>
	</g>
	<g>
		<path class="st1" d="M11.15,18.13h-2.9c-0.38,0-0.68-0.3-0.68-0.68v-2.9c0-0.38,0.3-0.68,0.68-0.68h2.9c0.38,0,0.68,0.3,0.68,0.68
			v2.9C11.83,17.83,11.53,18.13,11.15,18.13z"/>
		<path class="st1" d="M23.75,18.13h-2.9c-0.38,0-0.68-0.3-0.68-0.68v-2.9c0-0.38,0.3-0.68,0.68-0.68h2.9c0.38,0,0.68,0.3,0.68,0.68
			v2.9C24.43,17.83,24.13,18.13,23.75,18.13z"/>
		<path class="st1" d="M17.45,18.13h-2.9c-0.38,0-0.68-0.3-0.68-0.68v-2.9c0-0.38,0.3-0.68,0.68-0.68h2.9c0.38,0,0.68,0.3,0.68,0.68
			v2.9C18.13,17.83,17.83,18.13,17.45,18.13z"/>
	</g>
</g>
</svg>
