<?xml version="1.0" encoding="utf-8"?>
<!-- Generator: Adobe Illustrator 23.0.5, SVG Export Plug-In . SVG Version: 6.00 Build 0)  -->
<svg version="1.1" id="Layer_1" xmlns="http://www.w3.org/2000/svg" xmlns:xlink="http://www.w3.org/1999/xlink" x="0px" y="0px"
	 viewBox="0 0 32 32" style="enable-background:new 0 0 32 32;" xml:space="preserve">
<style type="text/css">
	.st0{fill:none;stroke:#000000;stroke-width:2;stroke-miterlimit:10;}
</style>
<g>
	<path class="st0" d="M12.43,30.1H4.37c-1.11,0-2.01-0.9-2.01-2.01V4.11C2.36,3,3.26,2.1,4.37,2.1h8.06c1.11,0,2.01,0.9,2.01,2.01
		v23.98C14.44,29.2,13.54,30.1,12.43,30.1z"/>
	<path class="st0" d="M27.63,14.3h-8.06c-1.11,0-2.01-0.9-2.01-2.01V3.91c0-1.11,0.9-2.01,2.01-2.01h8.06c1.11,0,2.01,0.9,2.01,2.01
		v8.38C29.64,13.4,28.74,14.3,27.63,14.3z"/>
	<path class="st0" d="M27.63,30.1h-8.06c-1.11,0-2.01-0.9-2.01-2.01v-8.38c0-1.11,0.9-2.01,2.01-2.01h8.06
		c1.11,0,2.01,0.9,2.01,2.01v8.38C29.64,29.2,28.74,30.1,27.63,30.1z"/>
</g>
</svg>
