<?xml version="1.0" encoding="utf-8"?>
<!-- Generator: Adobe Illustrator 23.0.5, SVG Export Plug-In . SVG Version: 6.00 Build 0)  -->
<svg version="1.1" id="Layer_1" xmlns="http://www.w3.org/2000/svg" xmlns:xlink="http://www.w3.org/1999/xlink" x="0px" y="0px"
	 viewBox="0 0 32 32" style="enable-background:new 0 0 32 32;" xml:space="preserve">
<style type="text/css">
	.st0{fill:none;stroke:#000000;stroke-width:2;stroke-miterlimit:10;}
</style>
<path class="st0" d="M20.96,2h-9.92C10.5,2,9.99,2.21,9.61,2.59L2.59,9.61C2.21,9.99,2,10.5,2,11.04v9.92
	c0,0.54,0.21,1.05,0.59,1.43l7.02,7.02C9.99,29.79,10.5,30,11.04,30h9.92c0.54,0,1.05-0.21,1.43-0.59l7.02-7.02
	C29.79,22.01,30,21.5,30,20.96v-9.92c0-0.54-0.21-1.05-0.59-1.43l-7.02-7.02C22.01,2.21,21.5,2,20.96,2z"/>
<circle class="st0" cx="16" cy="16" r="6.27"/>
</svg>
